<?xml version="1.0" encoding="utf-8"?>
<!-- Generator: Adobe Illustrator 24.3.0, SVG Export Plug-In . SVG Version: 6.00 Build 0)  -->
<svg version="1.1" id="Слой_1" xmlns="http://www.w3.org/2000/svg" xmlns:xlink="http://www.w3.org/1999/xlink" x="0px" y="0px"
	 viewBox="0 0 193 33" style="enable-background:new 0 0 193 33;" xml:space="preserve" width="200" height="34">
<style type="text/css">
	.st0{enable-background:new    ;}
	.st1{fill:#FFFFFF;}
</style>
<g class="st0">
	<path class="st1" d="M23.8,5.9c-0.1,0.1-0.3,0.2-0.5,0.2c-0.1,0-0.2,0-0.3,0c-2.1,2.1-5.1,4.6-7.7,6.5c0.2,0.1,0.5,0.2,0.6,0.3
		c-0.1,0.2-0.3,0.3-0.6,0.4v14.5h-2V13.8c-2.9,2-6.6,4.2-10.3,6c-0.3-0.4-0.8-1.1-1.1-1.5c7.4-3.4,15.4-9.2,19.8-14L23.8,5.9z"/>
	<path class="st1" d="M28.3,6.4c2.8,0.9,6,2.3,8,3.7l-1,1.7c-1.9-1.4-5.1-2.8-7.9-3.8L28.3,6.4z M28.2,25.1c9.6-3,16-8.3,19.2-15.8
		c0.6,0.5,1.2,0.8,1.8,1.1c-3.4,7.4-10,13.1-19.1,16.2c0,0.2-0.2,0.5-0.4,0.6L28.2,25.1z"/>
	<path class="st1" d="M74.2,14.8h-9.1l0.5,0.1c-0.1,0.2-0.2,0.3-0.5,0.3c-0.7,5-2.6,9.5-8.3,12.3c-0.3-0.4-1-1-1.5-1.3
		c5.6-2.7,7.2-6.5,7.8-11.4H52.5V13h21.7V14.8z M71.5,7.2H54.9V5.4h16.6V7.2z"/>
	<path class="st1" d="M80.1,19.1V6l2.6,0.2c0,0.2-0.2,0.4-0.6,0.5v12.5H80.1z M95.1,4.9c0,0.3-0.2,0.4-0.6,0.5V14
		c0,5.7-1.9,10.9-9.7,13.8c-0.3-0.4-0.9-1.1-1.4-1.5c7.5-2.8,9.2-7.4,9.2-12.4V4.8L95.1,4.9z"/>
	<path class="st1" d="M122.2,6.6c-0.1,0.1-0.2,0.2-0.4,0.2c-1.5,3.5-3.8,6.5-6.4,8.6c-0.4-0.4-1.2-0.8-1.6-1.1
		c2.5-1.8,4.5-4.4,5.4-6.7H99.9V5.9h20.4l0.3-0.1L122.2,6.6z M111.7,11.5c0,0.2-0.3,0.4-0.6,0.5c-0.8,6.4-3,12.4-8.5,15.7
		c-0.4-0.3-1.1-0.9-1.6-1.2c5.5-3,7.5-8.7,8.1-15.2L111.7,11.5z"/>
</g>
</svg>
